<svg xmlns="http://www.w3.org/2000/svg" width="480" height="200" class="">
    <defs>
        <style/>
    </defs>
    <style>@keyframes animation-gauge{0%{stroke-dasharray:0 329}}@keyframes animation-rainbow{0%,to{color:#7f00ff;fill:#7f00ff}14%{color:#a933ff;fill:#a933ff}29%{color:#007fff;fill:#007fff}43%{color:#00ff7f;fill:#00ff7f}57%{color:#ff0;fill:#ff0}71%{color:#ff7f00;fill:#ff7f00}86%{color:red;fill:red}}svg{font-family:-apple-system,BlinkMacSystemFont,Segoe UI,Helvetica,Arial,sans-serif,Apple Color Emoji,Segoe UI Emoji;font-size:14px;color:#777}h2{margin:8px 0 2px;padding:0;color:#0366d6;font-weight:400;font-size:16px}h2 svg{fill:currentColor}section>.field{margin-left:5px;margin-right:5px}.field{display:flex;align-items:center;margin-bottom:2px;white-space:nowrap}.field svg{margin:0 8px;fill:#959da5;flex-shrink:0}.row{display:flex;flex-wrap:wrap}.row section{flex:1 1 0}.chart-bars{display:flex;justify-content:space-between;align-items:flex-end}.chart-bars .entry{display:flex;flex-direction:column;align-items:center;flex:1}.chart-bars .entry .bar{width:80%;border-radius:2px}.chart-bars .entry .value{font-size:8px;color:#959da5;margin-bottom:2px}.chart-bars .entry .name{font-size:8px;color:#959da5;margin-top:2px}:root{--color-calendar-graph-day-bg:#ebedf0;--color-calendar-graph-day-border:rgba(27,31,35,0.06);--color-calendar-graph-day-L1-bg:#9be9a8;--color-calendar-graph-day-L2-bg:#40c463;--color-calendar-graph-day-L3-bg:#30a14e;--color-calendar-graph-day-L4-bg:#216e39;--color-calendar-halloween-graph-day-L1-bg:#ffee4a;--color-calendar-halloween-graph-day-L2-bg:#ffc501;--color-calendar-halloween-graph-day-L3-bg:#fe9600;--color-calendar-halloween-graph-day-L4-bg:#03001c;--color-calendar-winter-graph-day-L1-bg:#0a3069;--color-calendar-winter-graph-day-L2-bg:#0969da;--color-calendar-winter-graph-day-L3-bg:#54aeff;--color-calendar-winter-graph-day-L4-bg:#b6e3ff;--color-calendar-graph-day-L4-border:rgba(27,31,35,0.06);--color-calendar-graph-day-L3-border:rgba(27,31,35,0.06);--color-calendar-graph-day-L2-border:rgba(27,31,35,0.06);--color-calendar-graph-day-L1-border:rgba(27,31,35,0.06)}#metrics-end{width:100%}@media (prefers-color-scheme:dark){svg{color:#c9d1d9}h1,h2,h3{color:#58a6ff}.field svg{fill:#8b949e}.gauge .title{color:#c9d1d9}.achievement .text{color:#ccc}.stackoverflow .body,.stackoverflow .infos{color:#ccc}:root{--color-calendar-graph-day-bg:#161b22;--color-calendar-graph-day-L1-bg:#0e4429;--color-calendar-graph-day-L2-bg:#006d32;--color-calendar-graph-day-L3-bg:#26a641;--color-calendar-graph-day-L4-bg:#39d353}}</style>
    <style/>
    <foreignObject x="0" y="0" width="100%" height="100%">
        <div xmlns="http://www.w3.org/1999/xhtml" xmlns:xlink="http://www.w3.org/1999/xlink" class="items-wrapper">
            <section>
                <h2 class="field">
                    <svg xmlns="http://www.w3.org/2000/svg" viewBox="0 0 16 16" width="16" height="16"><path fill-rule="evenodd" d="M8 1.5c-2.363 0-4 1.69-4 3.75 0 .984.424 1.625.984 2.304l.214.253c.223.264.47.556.673.848.284.411.537.896.621 1.49a.75.75 0 01-1.484.211c-.04-.282-.163-.547-.37-.847a8.695 8.695 0 00-.542-.68c-.084-.1-.173-.205-.268-.32C3.201 7.75 2.5 6.766 2.5 5.25 2.5 2.31 4.863 0 8 0s5.5 2.31 5.5 5.25c0 1.516-.701 2.5-1.328 3.259-.095.115-.184.22-.268.319-.207.245-.383.453-.541.681-.208.3-.33.565-.37.847a.75.75 0 01-1.485-.212c.084-.593.337-1.078.621-1.489.203-.292.45-.584.673-.848.075-.088.147-.173.213-.253.561-.679.985-1.32.985-2.304 0-2.06-1.637-3.75-4-3.75zM6 15.25a.75.75 0 01.75-.75h2.5a.75.75 0 010 1.5h-2.5a.75.75 0 01-.75-.75zM5.75 12a.75.75 0 000 1.5h4.5a.75.75 0 000-1.5h-4.5z"/></svg>
                    Coding habits (last 14 days)
                </h2>
                <div class="field">
                    <svg xmlns="http://www.w3.org/2000/svg" viewBox="0 0 16 16" width="16" height="16"><path fill-rule="evenodd" d="M8 4a4 4 0 100 8 4 4 0 000-8z"/></svg>
                    78 commits · Peak: Fri at 08:00
                </div>
                <div class="field">
                    <svg xmlns="http://www.w3.org/2000/svg" viewBox="0 0 482 156" width="482" height="156">
                        <text x="36" y="22" fill="#959da5" font-size="9" text-anchor="end">Sun</text>
                        <text x="36" y="40" fill="#959da5" font-size="9" text-anchor="end">Mon</text>
                        <text x="36" y="58" fill="#959da5" font-size="9" text-anchor="end">Tue</text>
                        <text x="36" y="76" fill="#959da5" font-size="9" text-anchor="end">Wed</text>
                        <text x="36" y="94" fill="#959da5" font-size="9" text-anchor="end">Thu</text>
                        <text x="36" y="112" fill="#959da5" font-size="9" text-anchor="end">Fri</text>
                        <text x="36" y="130" fill="#959da5" font-size="9" text-anchor="end">Sat</text>
                        <text x="48" y="8" fill="#959da5" font-size="8" text-anchor="middle">00</text>
                        <text x="102" y="8" fill="#959da5" font-size="8" text-anchor="middle">03</text>
                        <text x="156" y="8" fill="#959da5" font-size="8" text-anchor="middle">06</text>
                        <text x="210" y="8" fill="#959da5" font-size="8" text-anchor="middle">09</text>
                        <text x="264" y="8" fill="#959da5" font-size="8" text-anchor="middle">12</text>
                        <text x="318" y="8" fill="#959da5" font-size="8" text-anchor="middle">15</text>
                        <text x="372" y="8" fill="#959da5" font-size="8" text-anchor="middle">18</text>
                        <text x="426" y="8" fill="#959da5" font-size="8" text-anchor="middle">21</text>
                        <rect x="40" y="10" width="16" height="16" rx="2" fill="#ebedf0"/>
                        <rect x="58" y="10" width="16" height="16" rx="2" fill="#ebedf0"/>
                        <rect x="76" y="10" width="16" height="16" rx="2" fill="#ebedf0"/>
                        <rect x="94" y="10" width="16" height="16" rx="2" fill="#ebedf0"/>
                        <rect x="112" y="10" width="16" height="16" rx="2" fill="#ebedf0"/>
                        <rect x="130" y="10" width="16" height="16" rx="2" fill="#ebedf0"/>
                        <rect x="148" y="10" width="16" height="16" rx="2" fill="#ebedf0"/>
                        <rect x="166" y="10" width="16" height="16" rx="2" fill="#ebedf0"/>
                        <rect x="184" y="10" width="16" height="16" rx="2" fill="#ebedf0"/>
                        <rect x="202" y="10" width="16" height="16" rx="2" fill="#9be9a8"/>
                        <rect x="220" y="10" width="16" height="16" rx="2" fill="#30a14e"/>
                        <rect x="238" y="10" width="16" height="16" rx="2" fill="#ebedf0"/>
                        <rect x="256" y="10" width="16" height="16" rx="2" fill="#ebedf0"/>
                        <rect x="274" y="10" width="16" height="16" rx="2" fill="#ebedf0"/>
                        <rect x="292" y="10" width="16" height="16" rx="2" fill="#ebedf0"/>
                        <rect x="310" y="10" width="16" height="16" rx="2" fill="#ebedf0"/>
                        <rect x="328" y="10" width="16" height="16" rx="2" fill="#ebedf0"/>
                        <rect x="346" y="10" width="16" height="16" rx="2" fill="#ebedf0"/>
                        <rect x="364" y="10" width="16" height="16" rx="2" fill="#ebedf0"/>
                        <rect x="382" y="10" width="16" height="16" rx="2" fill="#ebedf0"/>
                        <rect x="400" y="10" width="16" height="16" rx="2" fill="#ebedf0"/>
                        <rect x="418" y="10" width="16" height="16" rx="2" fill="#ebedf0"/>
                        <rect x="436" y="10" width="16" height="16" rx="2" fill="#ebedf0"/>
                        <rect x="454" y="10" width="16" height="16" rx="2" fill="#ebedf0"/>
                        <rect x="40" y="28" width="16" height="16" rx="2" fill="#ebedf0"/>
                        <rect x="58" y="28" width="16" height="16" rx="2" fill="#ebedf0"/>
                        <rect x="76" y="28" width="16" height="16" rx="2" fill="#ebedf0"/>
                        <rect x="94" y="28" width="16" height="16" rx="2" fill="#ebedf0"/>
                        <rect x="112" y="28" width="16" height="16" rx="2" fill="#ebedf0"/>
                        <rect x="130" y="28" width="16" height="16" rx="2" fill="#ebedf0"/>
                        <rect x="148" y="28" width="16" height="16" rx="2" fill="#ebedf0"/>
                        <rect x="166" y="28" width="16" height="16" rx="2" fill="#ebedf0"/>
                        <rect x="184" y="28" width="16" height="16" rx="2" fill="#ebedf0"/>
                        <rect x="202" y="28" width="16" height="16" rx="2" fill="#ebedf0"/>
                        <rect x="220" y="28" width="16" height="16" rx="2" fill="#9be9a8"/>
                        <rect x="238" y="28" width="16" height="16" rx="2" fill="#40c463"/>
                        <rect x="256" y="28" width="16" height="16" rx="2" fill="#ebedf0"/>
                        <rect x="274" y="28" width="16" height="16" rx="2" fill="#ebedf0"/>
                        <rect x="292" y="28" width="16" height="16" rx="2" fill="#ebedf0"/>
                        <rect x="310" y="28" width="16" height="16" rx="2" fill="#ebedf0"/>
                        <rect x="328" y="28" width="16" height="16" rx="2" fill="#ebedf0"/>
                        <rect x="346" y="28" width="16" height="16" rx="2" fill="#ebedf0"/>
                        <rect x="364" y="28" width="16" height="16" rx="2" fill="#ebedf0"/>
                        <rect x="382" y="28" width="16" height="16" rx="2" fill="#ebedf0"/>
                        <rect x="400" y="28" width="16" height="16" rx="2" fill="#ebedf0"/>
                        <rect x="418" y="28" width="16" height="16" rx="2" fill="#ebedf0"/>
                        <rect x="436" y="28" width="16" height="16" rx="2" fill="#ebedf0"/>
                        <rect x="454" y="28" width="16" height="16" rx="2" fill="#ebedf0"/>
                        <rect x="40" y="46" width="16" height="16" rx="2" fill="#ebedf0"/>
                        <rect x="58" y="46" width="16" height="16" rx="2" fill="#ebedf0"/>
                        <rect x="76" y="46" width="16" height="16" rx="2" fill="#ebedf0"/>
                        <rect x="94" y="46" width="16" height="16" rx="2" fill="#ebedf0"/>
                        <rect x="112" y="46" width="16" height="16" rx="2" fill="#ebedf0"/>
                        <rect x="130" y="46" width="16" height="16" rx="2" fill="#ebedf0"/>
                        <rect x="148" y="46" width="16" height="16" rx="2" fill="#9be9a8"/>
                        <rect x="166" y="46" width="16" height="16" rx="2" fill="#9be9a8"/>
                        <rect x="184" y="46" width="16" height="16" rx="2" fill="#9be9a8"/>
                        <rect x="202" y="46" width="16" height="16" rx="2" fill="#ebedf0"/>
                        <rect x="220" y="46" width="16" height="16" rx="2" fill="#ebedf0"/>
                        <rect x="238" y="46" width="16" height="16" rx="2" fill="#40c463"/>
                        <rect x="256" y="46" width="16" height="16" rx="2" fill="#9be9a8"/>
                        <rect x="274" y="46" width="16" height="16" rx="2" fill="#40c463"/>
                        <rect x="292" y="46" width="16" height="16" rx="2" fill="#ebedf0"/>
                        <rect x="310" y="46" width="16" height="16" rx="2" fill="#ebedf0"/>
                        <rect x="328" y="46" width="16" height="16" rx="2" fill="#ebedf0"/>
                        <rect x="346" y="46" width="16" height="16" rx="2" fill="#ebedf0"/>
                        <rect x="364" y="46" width="16" height="16" rx="2" fill="#ebedf0"/>
                        <rect x="382" y="46" width="16" height="16" rx="2" fill="#ebedf0"/>
                        <rect x="400" y="46" width="16" height="16" rx="2" fill="#ebedf0"/>
                        <rect x="418" y="46" width="16" height="16" rx="2" fill="#ebedf0"/>
                        <rect x="436" y="46" width="16" height="16" rx="2" fill="#ebedf0"/>
                        <rect x="454" y="46" width="16" height="16" rx="2" fill="#ebedf0"/>
                        <rect x="40" y="64" width="16" height="16" rx="2" fill="#ebedf0"/>
                        <rect x="58" y="64" width="16" height="16" rx="2" fill="#ebedf0"/>
                        <rect x="76" y="64" width="16" height="16" rx="2" fill="#ebedf0"/>
                        <rect x="94" y="64" width="16" height="16" rx="2" fill="#ebedf0"/>
                        <rect x="112" y="64" width="16" height="16" rx="2" fill="#ebedf0"/>
                        <rect x="130" y="64" width="16" height="16" rx="2" fill="#9be9a8"/>
                        <rect x="148" y="64" width="16" height="16" rx="2" fill="#9be9a8"/>
                        <rect x="166" y="64" width="16" height="16" rx="2" fill="#ebedf0"/>
                        <rect x="184" y="64" width="16" height="16" rx="2" fill="#ebedf0"/>
                        <rect x="202" y="64" width="16" height="16" rx="2" fill="#ebedf0"/>
                        <rect x="220" y="64" width="16" height="16" rx="2" fill="#ebedf0"/>
                        <rect x="238" y="64" width="16" height="16" rx="2" fill="#ebedf0"/>
                        <rect x="256" y="64" width="16" height="16" rx="2" fill="#ebedf0"/>
                        <rect x="274" y="64" width="16" height="16" rx="2" fill="#40c463"/>
                        <rect x="292" y="64" width="16" height="16" rx="2" fill="#ebedf0"/>
                        <rect x="310" y="64" width="16" height="16" rx="2" fill="#9be9a8"/>
                        <rect x="328" y="64" width="16" height="16" rx="2" fill="#9be9a8"/>
                        <rect x="346" y="64" width="16" height="16" rx="2" fill="#9be9a8"/>
                        <rect x="364" y="64" width="16" height="16" rx="2" fill="#ebedf0"/>
                        <rect x="382" y="64" width="16" height="16" rx="2" fill="#30a14e"/>
                        <rect x="400" y="64" width="16" height="16" rx="2" fill="#ebedf0"/>
                        <rect x="418" y="64" width="16" height="16" rx="2" fill="#ebedf0"/>
                        <rect x="436" y="64" width="16" height="16" rx="2" fill="#ebedf0"/>
                        <rect x="454" y="64" width="16" height="16" rx="2" fill="#ebedf0"/>
                        <rect x="40" y="82" width="16" height="16" rx="2" fill="#ebedf0"/>
                        <rect x="58" y="82" width="16" height="16" rx="2" fill="#ebedf0"/>
                        <rect x="76" y="82" width="16" height="16" rx="2" fill="#ebedf0"/>
                        <rect x="94" y="82" width="16" height="16" rx="2" fill="#ebedf0"/>
                        <rect x="112" y="82" width="16" height="16" rx="2" fill="#ebedf0"/>
                        <rect x="130" y="82" width="16" height="16" rx="2" fill="#9be9a8"/>
                        <rect x="148" y="82" width="16" height="16" rx="2" fill="#ebedf0"/>
                        <rect x="166" y="82" width="16" height="16" rx="2" fill="#216e39"/>
                        <rect x="184" y="82" width="16" height="16" rx="2" fill="#216e39"/>
                        <rect x="202" y="82" width="16" height="16" rx="2" fill="#9be9a8"/>
                        <rect x="220" y="82" width="16" height="16" rx="2" fill="#ebedf0"/>
                        <rect x="238" y="82" width="16" height="16" rx="2" fill="#ebedf0"/>
                        <rect x="256" y="82" width="16" height="16" rx="2" fill="#9be9a8"/>
                        <rect x="274" y="82" width="16" height="16" rx="2" fill="#ebedf0"/>
                        <rect x="292" y="82" width="16" height="16" rx="2" fill="#ebedf0"/>
                        <rect x="310" y="82" width="16" height="16" rx="2" fill="#ebedf0"/>
                        <rect x="328" y="82" width="16" height="16" rx="2" fill="#ebedf0"/>
                        <rect x="346" y="82" width="16" height="16" rx="2" fill="#ebedf0"/>
                        <rect x="364" y="82" width="16" height="16" rx="2" fill="#ebedf0"/>
                        <rect x="382" y="82" width="16" height="16" rx="2" fill="#ebedf0"/>
                        <rect x="400" y="82" width="16" height="16" rx="2" fill="#ebedf0"/>
                        <rect x="418" y="82" width="16" height="16" rx="2" fill="#ebedf0"/>
                        <rect x="436" y="82" width="16" height="16" rx="2" fill="#ebedf0"/>
                        <rect x="454" y="82" width="16" height="16" rx="2" fill="#ebedf0"/>
                        <rect x="40" y="100" width="16" height="16" rx="2" fill="#ebedf0"/>
                        <rect x="58" y="100" width="16" height="16" rx="2" fill="#ebedf0"/>
                        <rect x="76" y="100" width="16" height="16" rx="2" fill="#ebedf0"/>
                        <rect x="94" y="100" width="16" height="16" rx="2" fill="#30a14e"/>
                        <rect x="112" y="100" width="16" height="16" rx="2" fill="#40c463"/>
                        <rect x="130" y="100" width="16" height="16" rx="2" fill="#9be9a8"/>
                        <rect x="148" y="100" width="16" height="16" rx="2" fill="#9be9a8"/>
                        <rect x="166" y="100" width="16" height="16" rx="2" fill="#30a14e"/>
                        <rect x="184" y="100" width="16" height="16" rx="2" fill="#30a14e"/>
                        <rect x="202" y="100" width="16" height="16" rx="2" fill="#9be9a8"/>
                        <rect x="220" y="100" width="16" height="16" rx="2" fill="#ebedf0"/>
                        <rect x="238" y="100" width="16" height="16" rx="2" fill="#ebedf0"/>
                        <rect x="256" y="100" width="16" height="16" rx="2" fill="#ebedf0"/>
                        <rect x="274" y="100" width="16" height="16" rx="2" fill="#9be9a8"/>
                        <rect x="292" y="100" width="16" height="16" rx="2" fill="#ebedf0"/>
                        <rect x="310" y="100" width="16" height="16" rx="2" fill="#ebedf0"/>
                        <rect x="328" y="100" width="16" height="16" rx="2" fill="#ebedf0"/>
                        <rect x="346" y="100" width="16" height="16" rx="2" fill="#ebedf0"/>
                        <rect x="364" y="100" width="16" height="16" rx="2" fill="#ebedf0"/>
                        <rect x="382" y="100" width="16" height="16" rx="2" fill="#ebedf0"/>
                        <rect x="400" y="100" width="16" height="16" rx="2" fill="#ebedf0"/>
                        <rect x="418" y="100" width="16" height="16" rx="2" fill="#ebedf0"/>
                        <rect x="436" y="100" width="16" height="16" rx="2" fill="#ebedf0"/>
                        <rect x="454" y="100" width="16" height="16" rx="2" fill="#ebedf0"/>
                        <rect x="40" y="118" width="16" height="16" rx="2" fill="#ebedf0"/>
                        <rect x="58" y="118" width="16" height="16" rx="2" fill="#ebedf0"/>
                        <rect x="76" y="118" width="16" height="16" rx="2" fill="#ebedf0"/>
                        <rect x="94" y="118" width="16" height="16" rx="2" fill="#ebedf0"/>
                        <rect x="112" y="118" width="16" height="16" rx="2" fill="#ebedf0"/>
                        <rect x="130" y="118" width="16" height="16" rx="2" fill="#ebedf0"/>
                        <rect x="148" y="118" width="16" height="16" rx="2" fill="#ebedf0"/>
                        <rect x="166" y="118" width="16" height="16" rx="2" fill="#ebedf0"/>
                        <rect x="184" y="118" width="16" height="16" rx="2" fill="#ebedf0"/>
                        <rect x="202" y="118" width="16" height="16" rx="2" fill="#ebedf0"/>
                        <rect x="220" y="118" width="16" height="16" rx="2" fill="#ebedf0"/>
                        <rect x="238" y="118" width="16" height="16" rx="2" fill="#ebedf0"/>
                        <rect x="256" y="118" width="16" height="16" rx="2" fill="#ebedf0"/>
                        <rect x="274" y="118" width="16" height="16" rx="2" fill="#ebedf0"/>
                        <rect x="292" y="118" width="16" height="16" rx="2" fill="#ebedf0"/>
                        <rect x="310" y="118" width="16" height="16" rx="2" fill="#ebedf0"/>
                        <rect x="328" y="118" width="16" height="16" rx="2" fill="#ebedf0"/>
                        <rect x="346" y="118" width="16" height="16" rx="2" fill="#ebedf0"/>
                        <rect x="364" y="118" width="16" height="16" rx="2" fill="#ebedf0"/>
                        <rect x="382" y="118" width="16" height="16" rx="2" fill="#ebedf0"/>
                        <rect x="400" y="118" width="16" height="16" rx="2" fill="#ebedf0"/>
                        <rect x="418" y="118" width="16" height="16" rx="2" fill="#ebedf0"/>
                        <rect x="436" y="118" width="16" height="16" rx="2" fill="#ebedf0"/>
                        <rect x="454" y="118" width="16" height="16" rx="2" fill="#ebedf0"/>
                    </svg>
                </div>
            </section>

        </div>
        <div xmlns="http://www.w3.org/1999/xhtml" id="metrics-end"></div>
    </foreignObject>
</svg>